<svg id="visual" viewBox="0 0 900 600" width="900" height="600" xmlns="http://www.w3.org/2000/svg" xmlns:xlink="http://www.w3.org/1999/xlink" version="1.1"><g stroke-width="1" stroke-linejoin="bevel"><path d="M445 260.1L534 276.1L447 190.4Z" fill="#15384f" stroke="#15384f"></path><path d="M534 276.1L552 162.4L447 190.4Z" fill="#277297" stroke="#277297"></path><path d="M464 359.9L532 356.9L534 276.1Z" fill="#00101c" stroke="#00101c"></path><path d="M534 276.1L636 250.1L552 162.4Z" fill="#0c2435" stroke="#0c2435"></path><path d="M552 162.4L459 96.7L447 190.4Z" fill="#246688" stroke="#246688"></path><path d="M445 260.1L464 359.9L534 276.1Z" fill="#19435d" stroke="#19435d"></path><path d="M612 335.9L636 250.1L534 276.1Z" fill="#297ea6" stroke="#297ea6"></path><path d="M459 96.7L362 156.4L447 190.4Z" fill="#19435d" stroke="#19435d"></path><path d="M447 190.4L341 266.1L445 260.1Z" fill="#15384f" stroke="#15384f"></path><path d="M445 260.1L350 332.9L464 359.9Z" fill="#1d4e6b" stroke="#1d4e6b"></path><path d="M636 250.1L644 174.4L552 162.4Z" fill="#081a28" stroke="#081a28"></path><path d="M552 162.4L557 72.7L459 96.7Z" fill="#277297" stroke="#277297"></path><path d="M532 356.9L612 335.9L534 276.1Z" fill="#0c2435" stroke="#0c2435"></path><path d="M362 156.4L341 266.1L447 190.4Z" fill="#277297" stroke="#277297"></path><path d="M635 97.7L557 72.7L552 162.4Z" fill="#205a7a" stroke="#205a7a"></path><path d="M341 266.1L350 332.9L445 260.1Z" fill="#112e42" stroke="#112e42"></path><path d="M468 0L378 87.7L459 96.7Z" fill="#205a7a" stroke="#205a7a"></path><path d="M459 96.7L378 87.7L362 156.4Z" fill="#1d4e6b" stroke="#1d4e6b"></path><path d="M644 174.4L635 97.7L552 162.4Z" fill="#00101c" stroke="#00101c"></path><path d="M450 423.6L555 420.6L532 356.9Z" fill="#297ea6" stroke="#297ea6"></path><path d="M532 356.9L555 420.6L612 335.9Z" fill="#19435d" stroke="#19435d"></path><path d="M450 423.6L532 356.9L464 359.9Z" fill="#081a28" stroke="#081a28"></path><path d="M350 332.9L450 423.6L464 359.9Z" fill="#00101c" stroke="#00101c"></path><path d="M286 168.4L286 269.1L341 266.1Z" fill="#081a28" stroke="#081a28"></path><path d="M341 266.1L286 269.1L350 332.9Z" fill="#112e42" stroke="#112e42"></path><path d="M286 168.4L341 266.1L362 156.4Z" fill="#277297" stroke="#277297"></path><path d="M269 104.7L286 168.4L362 156.4Z" fill="#0c2435" stroke="#0c2435"></path><path d="M636 250.1L711 155.4L644 174.4Z" fill="#19435d" stroke="#19435d"></path><path d="M644 174.4L711 155.4L635 97.7Z" fill="#246688" stroke="#246688"></path><path d="M737 274.1L711 155.4L636 250.1Z" fill="#19435d" stroke="#19435d"></path><path d="M549 0L468 0L557 72.7Z" fill="#081a28" stroke="#081a28"></path><path d="M557 72.7L468 0L459 96.7Z" fill="#1d4e6b" stroke="#1d4e6b"></path><path d="M378 87.7L269 104.7L362 156.4Z" fill="#00101c" stroke="#00101c"></path><path d="M649 0L549 0L557 72.7Z" fill="#15384f" stroke="#15384f"></path><path d="M649 0L557 72.7L635 97.7Z" fill="#205a7a" stroke="#205a7a"></path><path d="M555 420.6L644 410.6L612 335.9Z" fill="#112e42" stroke="#112e42"></path><path d="M732 327.9L737 274.1L636 250.1Z" fill="#19435d" stroke="#19435d"></path><path d="M732 327.9L636 250.1L612 335.9Z" fill="#205a7a" stroke="#205a7a"></path><path d="M255 442.6L358 434.6L350 332.9Z" fill="#112e42" stroke="#112e42"></path><path d="M350 332.9L358 434.6L450 423.6Z" fill="#0c2435" stroke="#0c2435"></path><path d="M450 423.6L553 507.3L555 420.6Z" fill="#246688" stroke="#246688"></path><path d="M468 0L379 0L378 87.7Z" fill="#205a7a" stroke="#205a7a"></path><path d="M644 410.6L732 327.9L612 335.9Z" fill="#0c2435" stroke="#0c2435"></path><path d="M261 0L269 104.7L378 87.7Z" fill="#00101c" stroke="#00101c"></path><path d="M179 240.1L252 327.9L286 269.1Z" fill="#00101c" stroke="#00101c"></path><path d="M179 240.1L286 269.1L286 168.4Z" fill="#277297" stroke="#277297"></path><path d="M286 269.1L252 327.9L350 332.9Z" fill="#277297" stroke="#277297"></path><path d="M817 180.4L729 98.7L711 155.4Z" fill="#277297" stroke="#277297"></path><path d="M711 155.4L729 98.7L635 97.7Z" fill="#1d4e6b" stroke="#1d4e6b"></path><path d="M729 98.7L649 0L635 97.7Z" fill="#297ea6" stroke="#297ea6"></path><path d="M729 495.3L701 414.6L644 410.6Z" fill="#15384f" stroke="#15384f"></path><path d="M644 410.6L701 414.6L732 327.9Z" fill="#277297" stroke="#277297"></path><path d="M553 507.3L644 410.6L555 420.6Z" fill="#112e42" stroke="#112e42"></path><path d="M445 522.3L553 507.3L450 423.6Z" fill="#297ea6" stroke="#297ea6"></path><path d="M358 434.6L445 522.3L450 423.6Z" fill="#112e42" stroke="#112e42"></path><path d="M346 526.3L445 522.3L358 434.6Z" fill="#205a7a" stroke="#205a7a"></path><path d="M163 178.4L179 240.1L286 168.4Z" fill="#277297" stroke="#277297"></path><path d="M729 98.7L723 0L649 0Z" fill="#081a28" stroke="#081a28"></path><path d="M737 274.1L817 180.4L711 155.4Z" fill="#00101c" stroke="#00101c"></path><path d="M729 98.7L800 0L723 0Z" fill="#19435d" stroke="#19435d"></path><path d="M819 269.1L817 180.4L737 274.1Z" fill="#0c2435" stroke="#0c2435"></path><path d="M819 269.1L737 274.1L814 331.9Z" fill="#112e42" stroke="#112e42"></path><path d="M161 355.9L255 442.6L252 327.9Z" fill="#277297" stroke="#277297"></path><path d="M252 327.9L255 442.6L350 332.9Z" fill="#112e42" stroke="#112e42"></path><path d="M814 331.9L737 274.1L732 327.9Z" fill="#246688" stroke="#246688"></path><path d="M379 0L261 0L378 87.7Z" fill="#081a28" stroke="#081a28"></path><path d="M269 104.7L163 178.4L286 168.4Z" fill="#246688" stroke="#246688"></path><path d="M553 507.3L625 531.3L644 410.6Z" fill="#15384f" stroke="#15384f"></path><path d="M827 420.6L814 331.9L732 327.9Z" fill="#277297" stroke="#277297"></path><path d="M520 600L625 531.3L553 507.3Z" fill="#277297" stroke="#277297"></path><path d="M827 420.6L732 327.9L701 414.6Z" fill="#19435d" stroke="#19435d"></path><path d="M279 502.3L346 526.3L358 434.6Z" fill="#1d4e6b" stroke="#1d4e6b"></path><path d="M445 522.3L520 600L553 507.3Z" fill="#277297" stroke="#277297"></path><path d="M181 77.7L163 178.4L269 104.7Z" fill="#00101c" stroke="#00101c"></path><path d="M261 0L181 77.7L269 104.7Z" fill="#15384f" stroke="#15384f"></path><path d="M255 442.6L279 502.3L358 434.6Z" fill="#297ea6" stroke="#297ea6"></path><path d="M625 531.3L729 495.3L644 410.6Z" fill="#112e42" stroke="#112e42"></path><path d="M900 182.4L827 88.7L817 180.4Z" fill="#00101c" stroke="#00101c"></path><path d="M817 180.4L827 88.7L729 98.7Z" fill="#112e42" stroke="#112e42"></path><path d="M98 347.9L161 355.9L179 240.1Z" fill="#1d4e6b" stroke="#1d4e6b"></path><path d="M179 240.1L161 355.9L252 327.9Z" fill="#112e42" stroke="#112e42"></path><path d="M255 442.6L169 502.3L279 502.3Z" fill="#081a28" stroke="#081a28"></path><path d="M462 600L445 522.3L375 600Z" fill="#112e42" stroke="#112e42"></path><path d="M462 600L520 600L445 522.3Z" fill="#00101c" stroke="#00101c"></path><path d="M625 531.3L724 600L729 495.3Z" fill="#15384f" stroke="#15384f"></path><path d="M375 600L445 522.3L346 526.3Z" fill="#0c2435" stroke="#0c2435"></path><path d="M827 88.7L800 0L729 98.7Z" fill="#00101c" stroke="#00101c"></path><path d="M900 356.9L900 248.1L819 269.1Z" fill="#1d4e6b" stroke="#1d4e6b"></path><path d="M819 269.1L900 248.1L817 180.4Z" fill="#246688" stroke="#246688"></path><path d="M729 495.3L827 420.6L701 414.6Z" fill="#277297" stroke="#277297"></path><path d="M161 355.9L176 443.6L255 442.6Z" fill="#112e42" stroke="#112e42"></path><path d="M252 600L346 526.3L279 502.3Z" fill="#277297" stroke="#277297"></path><path d="M252 600L375 600L346 526.3Z" fill="#00101c" stroke="#00101c"></path><path d="M520 600L633 600L625 531.3Z" fill="#205a7a" stroke="#205a7a"></path><path d="M729 495.3L796 518.3L827 420.6Z" fill="#277297" stroke="#277297"></path><path d="M181 77.7L101 168.4L163 178.4Z" fill="#0c2435" stroke="#0c2435"></path><path d="M163 178.4L101 168.4L179 240.1Z" fill="#277297" stroke="#277297"></path><path d="M161 355.9L93 412.6L176 443.6Z" fill="#112e42" stroke="#112e42"></path><path d="M900 356.9L819 269.1L814 331.9Z" fill="#277297" stroke="#277297"></path><path d="M827 88.7L900 0L800 0Z" fill="#081a28" stroke="#081a28"></path><path d="M900 248.1L900 182.4L817 180.4Z" fill="#0c2435" stroke="#0c2435"></path><path d="M261 0L160 0L181 77.7Z" fill="#00101c" stroke="#00101c"></path><path d="M181 77.7L98 76.7L101 168.4Z" fill="#0c2435" stroke="#0c2435"></path><path d="M70 255.1L98 347.9L179 240.1Z" fill="#0c2435" stroke="#0c2435"></path><path d="M724 600L796 518.3L729 495.3Z" fill="#19435d" stroke="#19435d"></path><path d="M827 420.6L900 356.9L814 331.9Z" fill="#246688" stroke="#246688"></path><path d="M900 416.6L900 356.9L827 420.6Z" fill="#277297" stroke="#277297"></path><path d="M160 0L98 76.7L181 77.7Z" fill="#246688" stroke="#246688"></path><path d="M101 168.4L70 255.1L179 240.1Z" fill="#00101c" stroke="#00101c"></path><path d="M0 269.1L70 255.1L0 153.4Z" fill="#246688" stroke="#246688"></path><path d="M93 412.6L169 502.3L176 443.6Z" fill="#0c2435" stroke="#0c2435"></path><path d="M176 443.6L169 502.3L255 442.6Z" fill="#081a28" stroke="#081a28"></path><path d="M900 182.4L900 77.7L827 88.7Z" fill="#205a7a" stroke="#205a7a"></path><path d="M633 600L724 600L625 531.3Z" fill="#205a7a" stroke="#205a7a"></path><path d="M0 360.9L93 412.6L98 347.9Z" fill="#081a28" stroke="#081a28"></path><path d="M98 347.9L93 412.6L161 355.9Z" fill="#112e42" stroke="#112e42"></path><path d="M900 529.3L900 416.6L827 420.6Z" fill="#00101c" stroke="#00101c"></path><path d="M900 529.3L827 420.6L796 518.3Z" fill="#00101c" stroke="#00101c"></path><path d="M169 502.3L252 600L279 502.3Z" fill="#277297" stroke="#277297"></path><path d="M900 77.7L900 0L827 88.7Z" fill="#205a7a" stroke="#205a7a"></path><path d="M724 600L801 600L796 518.3Z" fill="#277297" stroke="#277297"></path><path d="M160 0L72 0L98 76.7Z" fill="#112e42" stroke="#112e42"></path><path d="M0 153.4L70 255.1L101 168.4Z" fill="#19435d" stroke="#19435d"></path><path d="M95 525.3L174 600L169 502.3Z" fill="#19435d" stroke="#19435d"></path><path d="M169 502.3L174 600L252 600Z" fill="#081a28" stroke="#081a28"></path><path d="M70 255.1L0 269.1L98 347.9Z" fill="#15384f" stroke="#15384f"></path><path d="M93 412.6L95 525.3L169 502.3Z" fill="#15384f" stroke="#15384f"></path><path d="M0 153.4L101 168.4L0 98.7Z" fill="#112e42" stroke="#112e42"></path><path d="M0 441.6L95 525.3L93 412.6Z" fill="#1d4e6b" stroke="#1d4e6b"></path><path d="M0 98.7L101 168.4L98 76.7Z" fill="#277297" stroke="#277297"></path><path d="M801 600L900 529.3L796 518.3Z" fill="#1d4e6b" stroke="#1d4e6b"></path><path d="M72 0L0 98.7L98 76.7Z" fill="#081a28" stroke="#081a28"></path><path d="M0 269.1L0 360.9L98 347.9Z" fill="#246688" stroke="#246688"></path><path d="M0 360.9L0 441.6L93 412.6Z" fill="#277297" stroke="#277297"></path><path d="M95 525.3L99 600L174 600Z" fill="#246688" stroke="#246688"></path><path d="M0 600L99 600L95 525.3Z" fill="#00101c" stroke="#00101c"></path><path d="M72 0L0 0L0 98.7Z" fill="#15384f" stroke="#15384f"></path><path d="M801 600L900 600L900 529.3Z" fill="#1d4e6b" stroke="#1d4e6b"></path><path d="M0 441.6L0 514.3L95 525.3Z" fill="#0c2435" stroke="#0c2435"></path><path d="M0 514.3L0 600L95 525.3Z" fill="#15384f" stroke="#15384f"></path></g></svg>